# xmcd
#
# Track frame offsets: 
#        150
#        8986
#        37556
#        61519
#        91841
#        118574
#        129006
#        160344
#        165473
#        193440
#
# Disc length: 2997 seconds
#
# Revision: 0
# Processed by: cddbd v1.5.1PL2 Copyright (c) Steve Scherf et al.
# Submitted via: ExactAudioCopy v0.95b4
#
DISCID=6b0bb30a
DTITLE=DJ Screw - Carge It To Da Game CD2
DYEAR=1900
DGENRE=DJ Screw
TTITLE0=Intro (Biggie Smalls)
TTITLE1=Missing You (Puffy)
TTITLE2=Flossin Is Da Way (Daz)
TTITLE3=Kill'em Up (C-BO)
TTITLE4=Hypnotize (Biggie Smalls)
TTITLE5=If I Ruled The World (Nas)
TTITLE6=California Love (2Pac)
TTITLE7=Instrumental
TTITLE8=If It Ain't One Thing It's Another (ESG)
TTITLE9=New Day (South Circle)
EXTD=
EXTT0=
EXTT1=
EXTT2=
EXTT3=
EXTT4=
EXTT5=
EXTT6=
EXTT7=
EXTT8=
EXTT9=
PLAYORDER=
